<svg width="12" height="12" viewBox="0 0 12 12" fill="none" xmlns="http://www.w3.org/2000/svg">
<path d="M11.0041 2.00409C10.7389 2.00409 10.4845 2.10945 10.297 2.29699C10.1094 2.48452 10.0041 2.73888 10.0041 3.00409V8.59409L1.71409 0.294092C1.52579 0.105788 1.27039 -1.9841e-09 1.00409 0C0.73779 1.9841e-09 0.482395 0.105788 0.294092 0.294092C0.105788 0.482395 1.9841e-09 0.73779 0 1.00409C-1.9841e-09 1.27039 0.105788 1.52579 0.294092 1.71409L8.59409 10.0041H3.00409C2.73888 10.0041 2.48452 10.1094 2.29699 10.297C2.10945 10.4845 2.00409 10.7389 2.00409 11.0041C2.00409 11.2693 2.10945 11.5237 2.29699 11.7112C2.48452 11.8987 2.73888 12.0041 3.00409 12.0041H11.0041C11.2693 12.0041 11.5237 11.8987 11.7112 11.7112C11.8987 11.5237 12.0041 11.2693 12.0041 11.0041V3.00409C12.0041 2.73888 11.8987 2.48452 11.7112 2.29699C11.5237 2.10945 11.2693 2.00409 11.0041 2.00409Z" fill="#108C4A"/>
</svg>
