<svg width="63" height="59" viewBox="0 0 63 59" fill="none" xmlns="http://www.w3.org/2000/svg">
<g filter="url(#filter0_d_182_197)">
<path d="M44.5443 19.3311L34.8681 12.5429C32.9772 11.2216 30.0227 11.2086 28.1465 12.53L18.4704 19.3311C17.0818 20.3027 16.2397 22.2459 16.5352 23.7745L18.3965 33.5423C18.825 35.7316 21.1443 37.4545 23.6704 37.4545H39.3295C41.8261 37.4545 44.1897 35.6927 44.6181 33.5293L46.4795 23.7616C46.7454 22.2459 45.9034 20.3027 44.5443 19.3311ZM32.6079 32.2727C32.6079 32.8038 32.1056 33.2443 31.5 33.2443C30.8943 33.2443 30.392 32.8038 30.392 32.2727V28.3863C30.392 27.8552 30.8943 27.4148 31.5 27.4148C32.1056 27.4148 32.6079 27.8552 32.6079 28.3863V32.2727Z" fill="#777777"/>
</g>
<defs>
<filter id="filter0_d_182_197" x="0.476257" y="0.54541" width="62.0522" height="57.9092" filterUnits="userSpaceOnUse" color-interpolation-filters="sRGB">
<feFlood flood-opacity="0" result="BackgroundImageFix"/>
<feColorMatrix in="SourceAlpha" type="matrix" values="0 0 0 0 0 0 0 0 0 0 0 0 0 0 0 0 0 0 127 0" result="hardAlpha"/>
<feOffset dy="5"/>
<feGaussianBlur stdDeviation="8"/>
<feComposite in2="hardAlpha" operator="out"/>
<feColorMatrix type="matrix" values="0 0 0 0 0.368627 0 0 0 0 0.835294 0 0 0 0 0.658824 0 0 0 0.25 0"/>
<feBlend mode="normal" in2="BackgroundImageFix" result="effect1_dropShadow_182_197"/>
<feBlend mode="normal" in="SourceGraphic" in2="effect1_dropShadow_182_197" result="shape"/>
</filter>
</defs>
</svg>
