<svg width="65" height="63" viewBox="0 0 65 63" fill="none" xmlns="http://www.w3.org/2000/svg">
<g filter="url(#filter0_d_32_3879)">
<path d="M45.5443 23.3311L35.8681 16.5429C33.9772 15.2216 31.0227 15.2086 29.1465 16.53L19.4704 23.3311C18.0818 24.3027 17.2397 26.2459 17.5352 27.7745L19.3965 37.5423C19.825 39.7316 22.1443 41.4545 24.6704 41.4545H40.3295C42.8261 41.4545 45.1897 39.6927 45.6181 37.5293L47.4795 27.7616C47.7454 26.2459 46.9034 24.3027 45.5443 23.3311ZM33.6079 36.2727C33.6079 36.8038 33.1056 37.2443 32.5 37.2443C31.8943 37.2443 31.392 36.8038 31.392 36.2727V32.3863C31.392 31.8552 31.8943 31.4148 32.5 31.4148C33.1056 31.4148 33.6079 31.8552 33.6079 32.3863V36.2727Z" fill="#9739E3"/>
</g>
<defs>
<filter id="filter0_d_32_3879" x="1.47626" y="4.54541" width="62.0522" height="57.9092" filterUnits="userSpaceOnUse" color-interpolation-filters="sRGB">
<feFlood flood-opacity="0" result="BackgroundImageFix"/>
<feColorMatrix in="SourceAlpha" type="matrix" values="0 0 0 0 0 0 0 0 0 0 0 0 0 0 0 0 0 0 127 0" result="hardAlpha"/>
<feOffset dy="5"/>
<feGaussianBlur stdDeviation="8"/>
<feComposite in2="hardAlpha" operator="out"/>
<feColorMatrix type="matrix" values="0 0 0 0 0.368627 0 0 0 0 0.835294 0 0 0 0 0.658824 0 0 0 0.25 0"/>
<feBlend mode="normal" in2="BackgroundImageFix" result="effect1_dropShadow_32_3879"/>
<feBlend mode="normal" in="SourceGraphic" in2="effect1_dropShadow_32_3879" result="shape"/>
</filter>
</defs>
</svg>
